<?xml version="1.0" encoding="utf-8"?>
<!-- Generator: Adobe Illustrator 23.0.1, SVG Export Plug-In . SVG Version: 6.00 Build 0)  -->
<svg version="1.1" id="Layer_1" xmlns="http://www.w3.org/2000/svg" xmlns:xlink="http://www.w3.org/1999/xlink" x="0px" y="0px"
	 viewBox="0 0 841.89 595.28" style="enable-background:new 0 0 841.89 595.28;" xml:space="preserve">
<style type="text/css">
	.st0{fill:none;stroke:#000000;stroke-miterlimit:10;}
</style>
<rect x="102.34" y="191.43" transform="matrix(0.7071 -0.7071 0.7071 0.7071 -111.2591 142.608)" class="st0" width="28.35" height="28.35"/>
<rect x="244.23" y="191.43" transform="matrix(0.7071 -0.7071 0.7071 0.7071 -69.7 242.9407)" class="st0" width="28.35" height="28.35"/>
<rect x="386.12" y="191.43" transform="matrix(0.7071 -0.7071 0.7071 0.7071 -28.1408 343.2734)" class="st0" width="28.35" height="28.35"/>
<rect x="528.02" y="191.43" transform="matrix(0.7071 -0.7071 0.7071 0.7071 13.4184 443.6062)" class="st0" width="28.35" height="28.35"/>
<rect x="669.91" y="191.43" transform="matrix(0.7071 -0.7071 0.7071 0.7071 54.9776 543.9389)" class="st0" width="28.35" height="28.35"/>
<line class="st0" x1="136.56" y1="205.61" x2="238.36" y2="205.61"/>
<line class="st0" x1="278.45" y1="205.61" x2="380.25" y2="205.61"/>
<line class="st0" x1="420.34" y1="205.61" x2="522.15" y2="205.61"/>
<line class="st0" x1="562.23" y1="205.61" x2="664.04" y2="205.61"/>
</svg>
