<?xml version="1.0" encoding="iso-8859-1"?>
<!-- Generator: Adobe Illustrator 19.0.0, SVG Export Plug-In . SVG Version: 6.00 Build 0)  -->
<svg version="1.1" id="Capa_1" xmlns="http://www.w3.org/2000/svg" xmlns:xlink="http://www.w3.org/1999/xlink" x="0px" y="0px"
	 viewBox="0 0 512 512" style="enable-background:new 0 0 512 512;" xml:space="preserve">
<g>
	<g>
		<g>
			<path d="M508.1,273.813l-62.175-75.501c10.418-9.201,18.664-20.599,24.142-33.374l24.916,8.095
				c2.906,0.963,6.106,0.296,8.385-1.749c2.279-2.045,3.287-5.154,2.643-8.147c-0.644-2.993-2.843-5.412-5.761-6.338l-24.798-8.057
				c3.211-13.644,3.22-27.847,0.026-41.495L500.25,99.2c2.919-0.926,5.118-3.344,5.763-6.338s-0.364-6.103-2.644-8.148
				c-2.279-2.045-5.48-2.712-8.386-1.747l-24.742,8.039c-5.567-12.849-13.928-24.296-24.474-33.508l15.35-21.131
				c1.792-2.465,2.133-5.699,0.895-8.484c-1.239-2.785-3.869-4.697-6.9-5.017c-3.031-0.32-6.002,1.002-7.794,3.467l-15.349,21.13
				c-12.007-7.212-25.487-11.621-39.434-12.897V8.533C392.533,3.82,388.713,0,384,0s-8.533,3.82-8.533,8.533v26.032
				c-13.948,1.277-27.428,5.685-39.434,12.897l-15.349-21.13c-2.771-3.811-8.106-4.654-11.917-1.883
				c-3.811,2.771-4.654,8.106-1.883,11.917l15.35,21.131c-10.547,9.212-18.907,20.659-24.474,33.508l-24.742-8.039
				c-2.909-0.972-6.115-0.309-8.399,1.737c-2.284,2.046-3.295,5.161-2.647,8.159c0.648,2.998,2.854,5.417,5.78,6.337l24.772,8.048
				c-1.568,6.806-2.37,13.767-2.389,20.752H136.058c-7.652-0.014-14.905,3.409-19.758,9.325L3.9,273.808
				c-0.376,0.486-0.725,0.993-1.045,1.517C1.052,276.914,0.013,279.197,0,281.6c0.044,0.311,0.106,0.62,0.186,0.924
				c-0.108,0.708-0.17,1.422-0.186,2.139V486.4c0.015,14.132,11.468,25.585,25.6,25.6h460.8c14.132-0.015,25.585-11.468,25.6-25.6
				V284.663C511.997,280.703,510.618,276.868,508.1,273.813z M384,51.2c31.85-0.05,60.415,19.594,71.766,49.352
				c11.351,29.759,3.123,63.436-20.67,84.609l-44.513-54.053c-0.076-0.092-0.197-0.119-0.277-0.206
				c-1.587-1.829-3.885-2.887-6.307-2.902h-76.8C307.248,85.604,341.604,51.248,384,51.2z M256,494.933H25.6
				c-4.711-0.005-8.529-3.822-8.533-8.533V290.133H256V494.933z M26.617,273.067l102.858-124.892
				c1.617-1.971,4.034-3.112,6.583-3.108h229.863l-105.411,128H26.617z M409.6,494.933h-51.2V384
				c0.005-4.711,3.822-8.529,8.533-8.533h34.133c4.711,0.005,8.529,3.822,8.533,8.533V494.933z M494.933,486.4
				c-0.005,4.711-3.822,8.529-8.533,8.533h-59.733V384c-0.015-14.132-11.468-25.585-25.6-25.6h-34.133
				c-14.132,0.015-25.585,11.468-25.6,25.6v110.933h-68.267V284.663L384,149.958l110.933,134.704V486.4z"/>
			<path d="M323.517,167.173c-1.376-3.066-4.423-5.039-7.784-5.039H145.067c-2.436,0-4.756,1.042-6.375,2.862l-29.992,33.741
				l-0.097,0.11l-38.177,42.949c-2.233,2.512-2.784,6.1-1.408,9.167C70.392,254.028,73.44,256,76.8,256h170.667
				c2.436,0,4.756-1.042,6.375-2.862l68.267-76.8C324.342,173.826,324.893,170.238,323.517,167.173z M234.231,179.2h19.835
				l-15.17,17.067H219.06L234.231,179.2z M191.564,179.2h19.835l-15.17,17.067h-19.835L191.564,179.2z M148.9,179.2h19.832
				l-15.17,17.067h-19.833L148.9,179.2z M115.636,238.933H95.8l22.757-25.6h19.834L115.636,238.933z M158.303,238.933h-19.835
				l22.755-25.6h19.835L158.303,238.933z M200.969,238.933h-19.835l22.755-25.6h19.835L200.969,238.933z M243.633,238.933h-19.832
				l22.755-25.6h19.834L243.633,238.933z M281.562,196.267h-19.835l15.17-17.067h19.836L281.562,196.267z"/>
		</g>
	</g>
</g>
<g>
</g>
<g>
</g>
<g>
</g>
<g>
</g>
<g>
</g>
<g>
</g>
<g>
</g>
<g>
</g>
<g>
</g>
<g>
</g>
<g>
</g>
<g>
</g>
<g>
</g>
<g>
</g>
<g>
</g>
</svg>
