<?xml version="1.0" encoding="utf-8"?>
<!-- Generator: Adobe Illustrator 23.0.1, SVG Export Plug-In . SVG Version: 6.00 Build 0)  -->
<svg version="1.1" id="Layer_1" xmlns="http://www.w3.org/2000/svg" xmlns:xlink="http://www.w3.org/1999/xlink" x="0px" y="0px"
	 width="1415.9px" height="655.5px" viewBox="0 0 1415.9 655.5" style="enable-background:new 0 0 1415.9 655.5;"
	 xml:space="preserve">
<style type="text/css">
	.st0{fill:#F8D71A;}
	.st1{fill:none;stroke:#939598;stroke-width:12;stroke-miterlimit:10;}
	.st2{fill:none;stroke:#939598;stroke-width:5;stroke-miterlimit:10;}
	.st3{fill:none;stroke:#939598;stroke-width:4;stroke-miterlimit:10;}
	.st4{font-family:'Raleway-SemiBoldItalic';}
	.st5{font-size:18px;}
	.st6{fill:#010101;}
	.st7{font-family:'MyriadPro-Regular';}
	.st8{font-size:12px;}
</style>
<g id="Layer_3">
	<polygon class="st0" points="199.2,217.6 317.5,230.6 368.8,255.4 272.6,322.9 	"/>
	<polygon class="st0" points="243.2,579 241.5,562.6 272.1,525.8 284,537.9 286.6,574.4 	"/>
	<path class="st0" d="M355.6,449.5l-10.3-25.3c0,0,78-89.5,103.1-160.3l55.7,13.8c0,0,18,6.8,17.7-11.2l16.5-17.9l9.9,27.9
		l57.2,93.6l7.1,0.3l46.3,61.6l-2.3,13.5c0,0-23.2,14.1-89.3-6.7c0,0-15.5-4.4-51.6,5.1l-6.2,1.7l-110.8-64.9l-16,20.4l12.6,10.6
		l-34.1,39.7L355.6,449.5z"/>
	<path class="st0" d="M698.8,28.8c0,0,14.6,1.5,23.1,14.1l-2.2,17.5l-10.2,11.4l-17.2-4.6L698.8,28.8z"/>
	<polygon class="st0" points="617.2,221 648.9,220.3 650.5,232.4 618.4,230.1 	"/>
	<polygon class="st0" points="619.5,232.4 640.6,234.9 647.2,270.1 623.1,272.5 	"/>
	<path class="st0" d="M771.6,237.8l35.8,31.1c0,0-1.4-4.6,3.6-4.8l7.1-0.5l-4.7-34.8L771.6,237.8z"/>
	<path class="st0" d="M767.6,234.4l-12.1-18.9c0,0,24.2-3.7,34.9-5.4s39.7-6.1,62.3-5.8s40.8,0,40.8,0v-2.5h14.6V213L767.6,234.4z"
		/>
	<polygon class="st0" points="1047.6,22.3 1067.1,71.8 1000.4,98.6 986.9,43 	"/>
	<path class="st0" d="M527,441.2l20-3c0,0,20-1.1,48.2,8l25.3,5.1v3.3l17.9,22V487h-86.1l-18.1-19.8L527,441.2z"/>
	<polygon class="st0" points="1045.4,315.1 1093.4,294.5 1105.4,330.7 1054.1,346.5 	"/>
	<path class="st0" d="M833.6,462v-20.7l19.1-19.4h-7.8v-14.3h14.4v12.3c0,0,23.5-9.4,51.2,11.7c0,0,14.4-15.1,26.1,1v32.2l-4.9,7.7
		h-28.3l-0.3,5.1h-4.9l-3.6,3.8h-4.1l-4,5.3C886.7,486.7,862.8,469.4,833.6,462z"/>
	<path class="st0" d="M950.8,434.5l-6.8,8.6c0,0-0.2,20.1-7.4,30.6l-3.3,37l-5.6,14l19.7,19.2l38.8-25.7V511l9.7-9.2l4.6,4.8
		l7.4-7.4L991.5,487l-4.1,4.3c0,0-3.1,4.3-7.7,0.5l-4.9-5.2l18.7-18.1L950.8,434.5z"/>
</g>
<g>
	<path class="st1" d="M-1.8,468.3c0,0,42-4.6,107.9-44.4s190.7-115.7,190.7-115.7s41.4-26,72-52.9s26-26.8,67.4-29.1
		s167.7,3.1,167.7,3.1s32.9,0.8,56.7,6.1c23.7,5.4,69.7,3.8,69.7,3.8s14.6,1.5,48.3-4.6s161.6-26,161.6-26l269.6-98
		c0,0,1.5-64.3-24.5-114.1"/>
	<path class="st1" d="M976.9-3.5l107.2,499.1c0,0,6.1,51.6,62.8,96c56.7,44.4,167,137.9,167,137.9"/>
	<polyline class="st2" points="1083,490.1 1032.6,499.8 867.2,633.5 847.2,599.3 767.6,561.8 	"/>
	<path class="st2" d="M803.8,729.5l-43.9-209.9c0,0-1-83.7-16.9-130.7c-15.8-47-51.6-140.4-51.6-140.4s26.6,1.5,51.1,20.4
		s290,230.8,290,230.8"/>
	<polyline class="st2" points="786.5,-3.5 783.9,112.2 775.2,140.8 777.3,206.1 771.6,235.9 	"/>
	<polyline class="st2" points="604,-3.5 617.7,230 623.1,282.2 649.9,352.7 725.4,339 	"/>
	<polyline class="st2" points="1123.2,-3.5 894.2,74.6 839.1,68.5 784.8,74.6 	"/>
	<path class="st2" d="M-4,0.9L272.8,59L477,149.5l44.4,9.2v100.6c0,2.4,0.1,4.8,0.3,7.2c0.4,4.9-0.3,16-17.7,11.2l-23.3-4.8
		c-6-1.2-10.2-6.6-9.9-12.7c0-0.1,0-0.2,0-0.3c0.9-12.8,5.1-49,5.1-49s-1.5-13.8,17.9-24.5s27.6-22.5,27.6-22.5"/>
	<line class="st2" x1="468.5" y1="-3.5" x2="437.7" y2="132.1"/>
	<path class="st2" d="M247.5,338.2l60.5,98.3c0,0,51.1,12.3,70.5,21.4c19.4,9.2,29.6,12.8,62.3,5.1c32.7-7.7,76.1-19.4,76.1-19.4
		s19.9-8.7,49.5-4.6s63.3,23.5,109.8-2s64.3-55.6,64.3-55.6"/>
	<path class="st2" d="M894.2,74.6l13.3,49.8l2.5,89c0,0,5.7,42.8-21.4,85.1s-35.9,57.8-35.9,57.8"/>
	<path class="st2" d="M87,20c0,0,32.1,5.6,70.4,58.4s52.9,108,115.7,133.3s95.7,43.7,95.7,43.7"/>
	<path class="st2" d="M355.6,449.5c0,0,16.3,48.2,46.9,81.9c23,25.3,52,44.2,65.1,52.1c5.4,3.2,10.5,6.8,15.5,10.6l175.8,135.4"/>
	<path class="st2" d="M1052.1,346.5l54.5-15.8c0,0,53.6-10.2,80.7-8.7s49.5-7.7,49.5-7.7l59.2-23l17.9-15.3"/>
	<line class="st3" x1="1047.6" y1="169.6" x2="1106.6" y2="330.7"/>
	<path class="st3" d="M1448.8,164.3l-39.8-3.1c0,0-13-6.9-24.5-29.1s-31.4-51.3-62-48.2s-112.6,26.8-112.6,26.8"/>
	<path class="st3" d="M47.2,453.8c0,0,55-2.3,105.6-9.2s113.6-11.7,155.2-8.2"/>
	<line class="st3" x1="621.2" y1="689.8" x2="570" y2="727"/>
	<polyline class="st3" points="634.5,685.7 737.5,689.7 793.7,681.2 	"/>
	<path class="st3" d="M432.1,558.9l-221.6,23.6l-68.4,77.6c0,0-32.2,33.2-61.3,48.5s-33.6,24-33.6,24"/>
	<polyline class="st3" points="338.8,444.5 320.8,457.4 217.5,581.7 	"/>
	<path class="st3" d="M350.2,567.6c0,0-6,9.8-6,30.2s0,63.3,0,63.3l-22,33.7l-10.2,2L260.5,727"/>
	<path class="st3" d="M528,440.3l6.2,26.9l35.7,39.2l-96.5,80.9l-29.6,41.6l-18.4,18.3c0,0-41.9,46-40.3,79.7"/>
	<polyline class="st3" points="562.7,655.5 620.5,587.1 616.9,571.8 555.9,518.2 	"/>
	<path class="st3" d="M220.8,174.6c0,0-116.6,138.3-145.7,199.5L68.5,391l4,51.4"/>
	<line class="st3" x1="783.9" y1="112.2" x2="900.3" y2="97.3"/>
	<path class="st3" d="M567.6,0.9l-23.1,21.6l-1.7,56.2c0,0-1,14.3-4.1,23.8s-11.3,78.1,3,124.7s23.9,56.8,34.1,72.4l198.8,289.9"/>
	<path class="st3" d="M756.7,464l47.1-7.6c0,0,60.3,3.6,103.7,48s54.4,52.6,54.4,52.6"/>
	<path class="st3" d="M849.4,467.2c0,0-2.5,18.8,9.9,47.4c12.4,28.6,51.2,83.9,51.2,83.9L1038.7,727"/>
	<line class="st3" x1="869.7" y1="631.5" x2="961.9" y2="727"/>
	<path class="st3" d="M628.6,678.2c7.9-26.4,44.5-79.1,61.2-102.2c5.3-7.3,11.3-14.1,17.9-20.3l26.7-24.7l23.1-57.3"/>
	<path class="st3" d="M634.6,685.5c0,0.1,0,0.2,0,0.3c-0.1,4-3.4,7.1-7.4,7.1c-2.5,0-4.6-1.2-6-3.1c-0.9-1.2-1.4-2.7-1.4-4.4
		c0-4.1,3.3-7.4,7.4-7.4c0.5,0,1,0,1.5,0.1C632,678.9,634.6,681.9,634.6,685.5z"/>
</g>
<g id="Layer_4">
	<text transform="matrix(1 0 0 1 910.4894 363.0301)" class="st4 st5">NOWE MIASTO</text>
	<text transform="matrix(1 0 0 1 431.097 485.6802)" class="st4 st5">MIĘDZYTORZE</text>
	<text transform="matrix(1 0 0 1 1129.7656 346.5339)" class="st4 st5">PRZYLESIE</text>
	<text transform="matrix(1 0 0 1 1223.2128 60.482)" class="st4 st5">OSIEDLE PRZYJAŹNI</text>
	<text transform="matrix(1 0 0 1 621.1708 91.3174)" class="st4 st5">ŚRÓDMIEŚCIE</text>
	<text transform="matrix(1 0 0 1 799.9362 535.5599)" class="st4 st5">LESZCZYNKO</text>
	<path class="st6" d="M688.7,336.5l-0.3-3.4c0.3-0.7,0.5-1,0.8-1.7l4.8-4.8c0.4-0.1,0.7-0.1,1.1-0.2l1,2.7c-0.3,0.7-0.4,1.1-0.7,1.8
		l-5.6,5.6C689.4,336.5,689.1,336.5,688.7,336.5z"/>
	<path class="st6" d="M689.3,344.6l-0.4-5.1c0.4-0.9,0.6-1.4,0.9-2.2l5.7-5.7c0.5,0,0.8,0,1.4-0.1l1.5,4c-0.3,1-0.4,1.5-0.7,2.6
		l-7,7C690.2,344.8,689.9,344.7,689.3,344.6z"/>
	<path class="st6" d="M690.4,357.6l-0.7-8.5c0.4-1.3,0.7-2,1.1-3.2l7.2-7.2c0.7,0.1,1.1,0.1,1.8,0.2l2.5,6.6
		c-0.3,1.5-0.5,2.3-0.8,3.9l-9.3,9.3C691.5,358.4,691.1,358.1,690.4,357.6z"/>
	<path class="st6" d="M696.7,328.6l-1.1-2.6c0.2-0.6,0.4-0.9,0.6-1.5l4.8-4.8c0.5-0.1,0.8-0.2,1.3-0.4l1.8,1.9
		c-0.2,0.6-0.3,1-0.4,1.6l-5.6,5.6C697.5,328.5,697.2,328.5,696.7,328.6z"/>
	<path class="st6" d="M699.2,334.7l-1.6-3.9c0.3-0.8,0.4-1.2,0.6-1.9l5.7-5.7c0.6-0.1,1-0.2,1.6-0.4l2.7,2.8
		c-0.1,0.8-0.2,1.3-0.4,2.2l-7,7C700.2,334.8,699.8,334.8,699.2,334.7z"/>
	<path class="st6" d="M703.3,344.7l-2.7-6.5c0.3-1.1,0.4-1.7,0.7-2.7l7.2-7.2c0.9-0.1,1.4-0.1,2.3-0.2l4.5,4.6
		c0,1.2-0.1,1.9-0.1,3.2l-9.3,9.3C704.8,345.1,704.3,345,703.3,344.7z"/>
	<path class="st6" d="M704.6,320.6l-1.9-1.8c0.2-0.5,0.2-0.8,0.4-1.3l4.8-4.8c0.6-0.2,0.9-0.4,1.5-0.6l2.6,1.1
		c-0.1,0.5-0.1,0.8-0.2,1.3l-5.6,5.6C705.6,320.3,705.2,320.4,704.6,320.6z"/>
	<path class="st6" d="M709,324.9l-2.8-2.7c0.1-0.7,0.2-1,0.4-1.7l5.7-5.7c0.7-0.2,1.2-0.4,1.9-0.6l3.9,1.6c0,0.7,0,1.1,0,1.8l-7,7
		C710.3,324.6,709.9,324.7,709,324.9z"/>
	<path class="st6" d="M716.2,331.8l-4.6-4.5c0.1-0.9,0.1-1.4,0.2-2.3l7.2-7.2c1-0.3,1.6-0.4,2.7-0.7l6.5,2.7c0.2,1,0.4,1.5,0.6,2.6
		l-9.3,9.3C718.2,331.8,717.5,331.8,716.2,331.8z"/>
	<path class="st6" d="M712.6,312.6l-2.7-1c0.1-0.4,0.1-0.7,0.2-1.1l4.8-4.8c0.6-0.3,1-0.5,1.7-0.8l3.4,0.3c0,0.4,0.1,0.6,0.1,1.1
		l-5.6,5.6C713.7,312.2,713.3,312.4,712.6,312.6z"/>
	<path class="st6" d="M718.9,315l-4-1.5c0-0.5,0-0.8,0.1-1.4l5.7-5.7c0.8-0.4,1.3-0.6,2.2-0.9l5.1,0.4c0.2,0.5,0.3,0.8,0.4,1.4l-7,7
		C720.4,314.6,719.9,314.7,718.9,315z"/>
	<path class="st6" d="M729.2,318.8l-6.6-2.5c-0.1-0.7-0.1-1.1-0.2-1.8l7.2-7.2c1.2-0.4,1.9-0.7,3.2-1.1l8.5,0.7
		c0.5,0.7,0.8,1.1,1.3,1.9l-9.3,9.3C731.6,318.4,730.7,318.6,729.2,318.8z"/>
	<path class="st6" d="M688.8,348.7c-2.9-1.5-5.6-3.5-8-5.9c-11.3-11.3-12.6-28.8-3.9-41.6c-7.1,11-5.8,25.8,3.8,35.4
		c2.3,2.3,4.8,4,7.5,5.4L688.8,348.7z"/>
	<path class="st6" d="M733.5,305.4l-6.6-0.5c-1.4-3.1-3.3-5.9-5.8-8.4c-9.6-9.6-24.4-10.9-35.4-3.8c12.7-8.7,30.3-7.4,41.6,3.9
		C729.8,299.2,731.9,302.2,733.5,305.4z"/>
</g>
<text transform="matrix(1 0 0 1 674.5571 372.382)"><tspan x="0" y="0" class="st7 st8">ul.Lipowa 26</tspan><tspan x="-4.3" y="14.4" class="st7 st8">Leszno 64-100</tspan></text>
</svg>
